<svg xmlns="http://www.w3.org/2000/svg" viewBox="0 0 256 256">
  <defs>
    <radialGradient id="core" cx="50%" cy="50%" r="50%">
      <stop offset="0" stop-color="#fffdf3" stop-opacity="1"/>
      <stop offset="0.22" stop-color="#ffe58a" stop-opacity="0.96"/>
      <stop offset="0.48" stop-color="#f2c14e" stop-opacity="0.52"/>
      <stop offset="1" stop-color="#f2c14e" stop-opacity="0"/>
    </radialGradient>
    <linearGradient id="ray" x1="0" y1="0" x2="1" y2="0">
      <stop offset="0" stop-color="#fffdf3" stop-opacity="0"/>
      <stop offset="0.5" stop-color="#fffdf3" stop-opacity="0.95"/>
      <stop offset="1" stop-color="#f2c14e" stop-opacity="0"/>
    </linearGradient>
  </defs>
  <circle cx="128" cy="128" r="82" fill="url(#core)"/>
  <g transform="translate(128 128)" opacity="0.95">
    <rect x="-7" y="-126" width="14" height="82" rx="7" fill="url(#ray)"/>
    <rect x="-7" y="44" width="14" height="82" rx="7" fill="url(#ray)"/>
    <rect x="-126" y="-7" width="82" height="14" rx="7" fill="url(#ray)"/>
    <rect x="44" y="-7" width="82" height="14" rx="7" fill="url(#ray)"/>
    <g transform="rotate(45)">
      <rect x="-6" y="-120" width="12" height="72" rx="6" fill="url(#ray)"/>
      <rect x="-6" y="48" width="12" height="72" rx="6" fill="url(#ray)"/>
      <rect x="-120" y="-6" width="72" height="12" rx="6" fill="url(#ray)"/>
      <rect x="48" y="-6" width="72" height="12" rx="6" fill="url(#ray)"/>
    </g>
    <g transform="rotate(22.5)" opacity="0.72">
      <rect x="-4" y="-118" width="8" height="54" rx="4" fill="#fff7cf"/>
      <rect x="-4" y="64" width="8" height="54" rx="4" fill="#fff7cf"/>
      <rect x="-118" y="-4" width="54" height="8" rx="4" fill="#fff7cf"/>
      <rect x="64" y="-4" width="54" height="8" rx="4" fill="#fff7cf"/>
    </g>
  </g>
  <circle cx="128" cy="128" r="28" fill="#fffdf3"/>
</svg>
